<svg xmlns="http://www.w3.org/2000/svg" version="1.1" xmlns:xlink="http://www.w3.org/1999/xlink" xmlns:svgjs="http://svgjs.dev/svgjs" width="128" height="128" viewBox="0 0 128 128"><g transform="matrix(0.8046875,0,0,0.8046875,12.333870967741937,12.333870967741937)"><svg viewBox="0 0 155 155" data-background-color="#551e19" preserveAspectRatio="xMidYMid meet" height="128" width="128" xmlns="http://www.w3.org/2000/svg" xmlns:xlink="http://www.w3.org/1999/xlink"><g id="tight-bounds" transform="matrix(1,0,0,1,0.25,0.25)"><svg viewBox="0 0 154.5 154.5" height="154.5" width="154.5"><g><svg></svg></g><g><svg viewBox="0 0 154.5 154.5" height="154.5" width="154.5"><g transform="matrix(1,0,0,1,55.29381097674418,47.746371)"><svg viewBox="0 0 43.91237804651163 59.00725799999999" height="59.00725799999999" width="43.91237804651163"><g><svg viewBox="0 0 43.91237804651163 59.00725799999999" height="59.00725799999999" width="43.91237804651163"><g><svg viewBox="0 0 43.91237804651163 59.00725799999999" height="59.00725799999999" width="43.91237804651163"><g id="textblocktransform"><svg viewBox="0 0 43.91237804651163 59.00725799999999" height="59.00725799999999" width="43.91237804651163" id="textblock"><g><svg viewBox="0 0 43.91237804651163 59.00725799999999" height="59.00725799999999" width="43.91237804651163"><g transform="matrix(1,0,0,1,0,0)"><svg width="43.91237804651163" viewBox="0.35 -34.4 25.599999999999998 34.4" height="59.00725799999999" data-palette-color="#e6b17e"><path d="M25.95 0L21.15 0 18.85-8.75 7.3-8.75 5 0 0.35 0 10.3-34.4 16-34.4 25.95 0ZM13.1-30.7L8.25-12.4 17.9-12.4 13.1-30.7Z" opacity="1" transform="matrix(1,0,0,1,0,0)" fill="#e6b17e" class="undefined-text-0" data-fill-palette-color="primary" id="text-0"></path></svg></g></svg></g></svg></g></svg></g></svg></g></svg></g><g><path d="M50.058 33.816A21.956 21.956 0 0 1 104.442 33.816L99.121 33.816A16.635 16.635 0 0 0 55.379 33.816L50.058 33.816M50.058 120.684A21.956 21.956 0 0 0 104.442 120.684L99.121 120.684A16.635 16.635 0 0 1 55.379 120.684L50.058 120.684" fill="#e6b17e" stroke="transparent" data-fill-palette-color="tertiary"></path></g></svg></g><defs></defs></svg><rect width="154.5" height="154.5" fill="none" stroke="none" visibility="hidden"></rect></g></svg></g></svg>