<svg xmlns="http://www.w3.org/2000/svg" version="1.1" xmlns:xlink="http://www.w3.org/1999/xlink" xmlns:svgjs="http://svgjs.dev/svgjs" width="2000" height="1247" viewBox="0 0 2000 1247"><g transform="matrix(1,0,0,1,-1.2121212121212466,0.504858299595071)"><svg viewBox="0 0 396 247" data-background-color="#551e19" preserveAspectRatio="xMidYMid meet" height="1247" width="2000" xmlns="http://www.w3.org/2000/svg" xmlns:xlink="http://www.w3.org/1999/xlink"><g id="tight-bounds" transform="matrix(1,0,0,1,0.2400000000000091,-0.09999999999999432)"><svg viewBox="0 0 395.52 247.2" height="247.2" width="395.52"><g><svg></svg></g><g><svg viewBox="0 0 395.52 247.2" height="247.2" width="395.52"><g transform="matrix(1,0,0,1,140.9154976744186,47.215199999999996)"><svg viewBox="0 0 113.68900465116278 152.7696" height="152.7696" width="113.68900465116278"><g><svg viewBox="0 0 113.68900465116278 152.7696" height="152.7696" width="113.68900465116278"><g><svg viewBox="0 0 113.6890046511628 152.76960000000003" height="152.7696" width="113.68900465116278"><g><svg viewBox="0 0 113.6890046511628 152.76960000000003" height="152.76960000000003" width="113.6890046511628"><g id="textblocktransform"><svg viewBox="0 0 113.6890046511628 152.76960000000003" height="152.76960000000003" width="113.6890046511628" id="textblock"><g><svg viewBox="0 0 113.6890046511628 152.76960000000003" height="152.76960000000003" width="113.6890046511628"><g transform="matrix(1,0,0,1,0,0)"><svg width="113.6890046511628" viewBox="0.3500000238418579 -34.400001525878906 25.600000381469727 34.400001525878906" height="152.76960000000003" data-palette-color="#e6b17e"><path d="M25.95 0L21.15 0 18.85-8.75 7.3-8.75 5 0 0.35 0 10.3-34.4 16-34.4 25.95 0ZM13.1-30.7L8.25-12.4 17.9-12.4 13.1-30.7Z" opacity="1" transform="matrix(1,0,0,1,0,0)" fill="#e6b17e" class="undefined-text-0" data-fill-palette-color="primary" id="text-0"></path></svg></g></svg></g></svg></g></svg></g></svg></g></svg></g></svg></g><g><path d="M0 123.6c0-68.262 55.338-123.6 123.6-123.6 30.402 0 58.24 10.976 79.768 29.183l-11.147 0c-19.26-14.022-42.974-22.294-68.621-22.295-64.458 0-116.712 52.254-116.712 116.712 0 64.458 52.254 116.712 116.712 116.712 25.647 0 49.361-8.272 68.621-22.295l11.147 0c-21.528 18.206-49.366 29.183-79.768 29.183-68.262 0-123.6-55.338-123.6-123.6z" fill="#e6b17e" stroke="transparent" data-fill-palette-color="tertiary"></path></g></svg></g><defs></defs></svg><rect width="395.52" height="247.2" fill="none" stroke="none" visibility="hidden"></rect></g></svg></g></svg>